<?xml version="1.0" encoding="UTF-8"?>
<!DOCTYPE svg PUBLIC "-//W3C//DTD SVG 1.1//EN" "http://www.w3.org/Graphics/SVG/1.1/DTD/svg11.dtd">
<!-- Creator: CorelDRAW X7 -->
<svg xmlns="http://www.w3.org/2000/svg" xml:space="preserve" width="71.6138mm" height="15.1694mm" version="1.1" style="shape-rendering:geometricPrecision; text-rendering:geometricPrecision; image-rendering:optimizeQuality; fill-rule:evenodd; clip-rule:evenodd"
viewBox="0 0 6742 1428"
 xmlns:xlink="http://www.w3.org/1999/xlink">
 <defs>
  <style type="text/css">
   <![CDATA[
    .fil0 {fill:white}
   ]]>
  </style>
 </defs>
 <g id="Слой_x0020_1">
  <metadata id="CorelCorpID_0Corel-Layer"/>
  <g id="_2148402382560">
   <path class="fil0" d="M2358 631l33 0 0 33 -33 0 0 -33zm532 -100l0 -33 33 0 0 33 -33 0zm-798 133l100 0 0 33 100 0 0 200 33 0 0 33 166 0 0 -33 33 0 0 33 67 0 0 -66 33 0 0 -67 33 0 0 -66 33 0 0 -34 34 0 0 -33 33 0 0 -66 33 0 0 -33 33 0 0 -34 67 0 0 67 -34 0 0 33 -33 0 0 66 -33 0 0 67 -33 0 0 166 66 0 0 -66 33 0 0 -34 34 0 0 -66 33 0 0 -67 33 0 0 -33 33 0 0 -33 33 0 0 -33 34 0 0 -33 33 0 0 -34 33 0 0 -33 33 0 0 67 -33 0 0 33 -33 0 0 66 -33 0 0 67 -34 0 0 166 34 0 0 33 199 0 0 -33 33 0 0 33 166 0 0 -33 33 0 0 -33 34 0 0 -34 33 0 0 67 33 0 0 33 166 0 0 -33 67 0 0 33 66 0 0 -66 33 0 0 -67 33 0 0 -66 34 0 0 -34 -100 0 0 -33 -33 0 0 33 -33 0 0 67 -34 0 0 33 -33 0 0 33 -33 0 0 34 -67 0 0 -100 34 0 0 -67 33 0 0 -33 33 0 0 -66 33 0 0 -67 34 0 0 -99 -34 0 0 -33 -33 0 0 33 -33 0 0 33 -33 0 0 66 -34 0 0 67 -33 0 0 33 -33 0 0 66 -33 0 0 34 -33 0 0 66 -34 0 0 33 -33 0 0 34 -99 0 0 -34 33 0 0 -99 33 0 0 -67 33 0 0 -33 33 0 0 -66 34 0 0 -67 33 0 0 -66 -33 0 0 -33 -67 0 0 33 -33 0 0 66 -33 0 0 33 -33 0 0 67 -34 0 0 66 -33 0 0 100 -33 0 0 66 -33 0 0 34 -100 0 0 -67 33 0 0 -66 33 0 0 -67 34 0 0 -66 33 0 0 -33 33 0 0 -166 -133 0 0 33 -33 0 0 33 -66 0 0 -33 -34 0 0 -33 -99 0 0 33 -67 0 0 33 -33 0 0 33 -33 0 0 -99 -66 0 0 66 -34 0 0 33 -33 0 0 67 -33 0 0 66 -33 0 0 66 -34 0 0 67 -33 0 0 33 -33 0 0 33 -33 0 0 34 -67 0 0 -100 34 0 0 -67 33 0 0 -66 33 0 0 -66 33 0 0 -166 -66 0 0 66 -33 0 0 66 -34 0 0 34 -33 0 0 33 -66 0 0 33 -67 0 0 -33 34 0 0 -33 33 0 0 -166 -67 0 0 33 -33 0 0 66 -33 0 0 67 -33 0 0 33 -34 0 0 66z"/>
   <path class="fil0" d="M1926 598l-33 0 0 66 -66 0 0 33 -33 0 0 -99 33 0 0 -33 33 0 0 -34 33 0 0 -33 33 0 0 -33 34 0 0 100 -34 0 0 33zm-963 33l-33 0 0 66 -33 0 0 34 -33 0 0 66 -34 0 0 33 -33 0 0 34 -100 0 0 -67 34 0 0 -100 33 0 0 -33 33 0 0 -66 33 0 0 -33 34 0 0 -34 33 0 0 -33 99 0 0 33 -33 0 0 100zm1229 66l-100 0 0 -33 -33 0 0 67 -33 0 0 66 -33 0 0 33 -67 0 0 34 -166 0 0 -34 -33 0 0 -66 33 0 0 -33 34 0 0 33 132 0 0 -33 67 0 0 -34 33 0 0 -66 33 0 0 -166 -33 0 0 -33 -33 0 0 -33 -166 0 0 33 -33 0 0 33 -34 0 0 33 -33 0 0 33 -33 0 0 67 -33 0 0 66 -34 0 0 133 -33 0 0 33 -33 0 0 34 -100 0 0 -67 34 0 0 -100 33 0 0 -99 33 0 0 -67 33 0 0 -166 -66 0 0 34 -33 0 0 33 -34 0 0 66 -33 0 0 33 -33 0 0 67 -33 0 0 33 -33 0 0 66 -34 0 0 34 -33 0 0 66 -33 0 0 33 -33 0 0 34 -34 0 0 -67 34 0 0 -100 -34 0 0 34 -66 0 0 66 -33 0 0 67 -100 0 0 -67 33 0 0 -66 34 0 0 -67 33 0 0 -33 33 0 0 -66 33 0 0 -166 -66 0 0 33 -33 0 0 -33 -166 0 0 33 -67 0 0 33 -33 0 0 33 -33 0 0 33 -34 0 0 34 -33 0 0 66 -33 0 0 66 -33 0 0 200 33 0 0 33 166 0 0 -33 67 0 0 -33 33 0 0 66 166 0 0 -33 33 0 0 33 133 0 0 -33 33 0 0 -33 33 0 0 -34 34 0 0 -33 33 0 0 100 33 0 0 33 166 0 0 -33 66 0 0 -33 34 0 0 33 33 0 0 33 232 0 0 -33 100 0 0 33 66 0 0 -66 34 0 0 -67 33 0 0 -66 33 0 0 -34z"/>
   <path class="fil0" d="M5248 1096l0 66 -33 0 0 34 -34 0 0 66 -33 0 0 33 -33 0 0 -66 33 0 0 -67 33 0 0 -33 34 0 0 -33 33 0zm0 0l0 -33 33 0 0 33 -33 0zm66 -166l0 -33 33 0 0 33 -33 0zm664 -199l-33 0 0 33 -33 0 0 33 -33 0 0 33 -33 0 0 34 -67 0 0 -167 33 0 0 -66 34 0 0 -66 33 0 0 -34 33 0 0 -33 66 0 0 -33 34 0 0 199 -34 0 0 67zm-664 199l0 33 -66 0 0 33 -67 0 0 34 -33 0 0 33 -33 0 0 33 -33 0 0 66 -34 0 0 200 34 0 0 33 33 0 0 33 33 0 0 -33 67 0 0 -33 33 0 0 -33 33 0 0 -67 33 0 0 -66 33 0 0 -67 34 0 0 -66 33 0 0 -67 33 0 0 -33 33 0 0 -33 67 0 0 -33 66 0 0 -33 33 0 0 -34 34 0 0 34 33 0 0 33 33 0 0 33 166 0 0 -33 66 0 0 -33 34 0 0 -34 33 0 0 -66 33 0 0 -67 33 0 0 -232 -33 0 0 -33 -33 0 0 -33 -133 0 0 -34 33 0 0 -33 33 0 0 -33 67 0 0 -33 66 0 0 -34 33 0 0 -33 67 0 0 -33 66 0 0 -66 34 0 0 -100 -67 0 0 33 -33 0 0 33 -33 0 0 34 -67 0 0 33 -33 0 0 33 -66 0 0 33 -34 0 0 33 -66 0 0 67 -33 0 0 33 -33 0 0 33 -34 0 0 67 -33 0 0 66 -33 0 0 67 -33 0 0 66 -33 0 0 100 -34 0 0 33 -33 0 0 33 -33 0 0 33 -33 0 0 34 -67 0 0 -34 33 0 0 -66 34 0 0 -67 33 0 0 -66 33 0 0 -66 33 0 0 -67 34 0 0 -33 -34 0 0 -66 -66 0 0 66 -33 0 0 66 -34 0 0 34 -33 0 0 66 -33 0 0 66 -33 0 0 67 -33 0 0 33 -34 0 0 33 -33 0 0 34 -66 0 0 -100 33 0 0 -67 33 0 0 -66 33 0 0 -33 34 0 0 -67 33 0 0 -99 -33 0 0 -33 -67 0 0 66 -33 0 0 33 -33 0 0 67 -33 0 0 66 -34 0 0 66 -33 0 0 200 33 0 0 33 133 0z"/>
   <path class="fil0" d="M399 731l-34 0 0 33 -33 0 0 33 -66 0 0 33 -166 0 0 -33 33 0 0 -100 33 0 0 -66 266 0 0 66 -33 0 0 34zm166 -366l-34 0 0 34 -66 0 0 33 -33 0 0 33 -67 0 0 33 -99 0 0 -33 33 0 0 -66 33 0 0 -34 33 0 0 -99 34 0 0 -34 66 0 0 -33 133 0 0 100 -33 0 0 66zm-166 -232l-100 0 0 33 -100 0 0 66 33 0 0 34 34 0 0 33 -34 0 0 33 -33 0 0 67 -33 0 0 66 -33 0 0 66 -33 0 0 67 -34 0 0 66 -33 0 0 100 -33 0 0 66 33 0 0 67 33 0 0 33 233 0 0 -33 66 0 0 -33 67 0 0 -34 33 0 0 -66 33 0 0 -166 -66 0 0 -33 66 0 0 -34 33 0 0 -33 34 0 0 -33 33 0 0 -33 33 0 0 -67 33 0 0 -199 -33 0 0 -33 -33 0 0 -33 -199 0 0 33z"/>
   <polygon class="fil0" points="4982,166 4949,166 4949,199 4916,199 4916,266 4882,266 4882,332 4849,332 4849,399 4816,399 4816,465 4783,465 4783,531 4750,531 4750,598 4716,598 4716,664 4683,664 4683,731 4650,731 4650,930 4716,930 4716,830 4750,830 4750,764 4783,764 4783,664 4849,664 4849,731 4882,731 4882,764 4916,764 4916,830 4949,830 4949,864 4982,864 4982,930 5048,930 5048,764 5015,764 5015,697 4982,697 4982,631 4949,631 4949,598 4982,598 4982,565 5048,565 5048,531 5082,531 5082,498 5115,498 5115,465 5148,465 5148,432 5181,432 5181,399 5248,399 5248,365 5281,365 5281,332 5314,332 5314,299 5347,299 5347,232 5381,232 5381,166 5414,166 5414,100 5347,100 5347,133 5314,133 5314,166 5281,166 5281,199 5248,199 5248,232 5215,232 5215,266 5148,266 5148,299 5115,299 5115,332 5082,332 5082,365 5048,365 5048,399 5015,399 5015,432 4982,432 4982,465 4949,465 4949,399 4982,399 4982,332 5015,332 5015,266 5048,266 5048,100 4982,100 "/>
   <path class="fil0" d="M6510 631l-33 0 0 66 -34 0 0 34 -33 0 0 66 -33 0 0 33 -33 0 0 34 -100 0 0 -67 33 0 0 -100 34 0 0 -33 33 0 0 -66 33 0 0 -33 33 0 0 -34 33 0 0 -33 100 0 0 33 -33 0 0 100zm-100 -199l-66 0 0 33 -33 0 0 33 -34 0 0 33 -33 0 0 34 -33 0 0 66 -33 0 0 66 -34 0 0 200 34 0 0 33 166 0 0 -33 66 0 0 -33 33 0 0 66 166 0 0 -33 67 0 0 -33 33 0 0 -67 33 0 0 -100 -33 0 0 34 -33 0 0 33 -33 0 0 66 -34 0 0 34 -99 0 0 -67 33 0 0 -66 33 0 0 -67 33 0 0 -33 34 0 0 -66 33 0 0 -166 -67 0 0 33 -33 0 0 -33 -166 0 0 33z"/>
   <path class="fil0" d="M4152 631l33 0 0 33 -33 0 0 -33zm-266 33l100 0 0 33 99 0 0 200 33 0 0 33 167 0 0 -33 33 0 0 -33 33 0 0 -34 33 0 0 -33 33 0 0 -100 -66 0 0 67 -33 0 0 33 -33 0 0 33 -34 0 0 34 -66 0 0 -100 33 0 0 -67 33 0 0 -66 34 0 0 -66 33 0 0 -166 -67 0 0 66 -33 0 0 66 -33 0 0 34 -33 0 0 33 -67 0 0 33 -66 0 0 -33 33 0 0 -33 33 0 0 -166 -66 0 0 33 -33 0 0 66 -34 0 0 67 -33 0 0 33 -33 0 0 66z"/>
  </g>
 </g>
</svg>
