<?xml version="1.0" encoding="UTF-8"?>
<!DOCTYPE svg PUBLIC "-//W3C//DTD SVG 1.1//EN" "http://www.w3.org/Graphics/SVG/1.1/DTD/svg11.dtd">
<!-- Creator: CorelDRAW X7 -->
<svg xmlns="http://www.w3.org/2000/svg" xml:space="preserve" width="76.8193mm" height="36.3423mm" version="1.1" style="shape-rendering:geometricPrecision; text-rendering:geometricPrecision; image-rendering:optimizeQuality; fill-rule:evenodd; clip-rule:evenodd"
viewBox="0 0 8561 4050"
 xmlns:xlink="http://www.w3.org/1999/xlink">
 <defs>
  <style type="text/css">
   <![CDATA[
    .fil0 {fill:white}
   ]]>
  </style>
 </defs>
 <g id="Слой_x0020_1">
  <metadata id="CorelCorpID_0Corel-Layer"/>
  <g id="_2148395234672">
   <path class="fil0" d="M655 3929l0 49 -24 0 0 -49 24 0zm0 0l0 -48 24 0 0 -25 24 0 0 49 -24 0 0 24 -24 0zm582 -194l0 24 -24 0 0 -24 24 0zm-388 0l0 24 -24 0 0 -24 24 0zm-315 -48l-25 0 0 48 -72 0 0 -48 24 0 0 -73 24 0 0 -24 24 0 0 -25 25 0 0 49 24 0 0 48 -24 0 0 25zm1309 -49l-24 0 0 24 -24 0 0 49 -25 0 0 24 -24 0 0 24 -24 0 0 -97 24 0 0 -48 24 0 0 -24 25 0 0 -25 24 0 0 -24 49 0 0 49 -25 0 0 48zm-1552 24l-24 0 0 49 -24 0 0 24 -25 0 0 24 -24 0 0 -24 -24 0 0 -48 24 0 0 -49 24 0 0 -48 25 0 0 -25 24 0 0 -24 48 0 0 49 -24 0 0 72zm1868 -48l-25 0 0 24 -24 0 0 24 -24 0 0 -97 24 0 0 -24 24 0 0 -24 25 0 0 24 24 0 0 24 -24 0 0 49zm-1334 24l-25 0 0 24 -24 0 0 49 -24 0 0 24 -24 0 0 24 -49 0 0 -48 24 0 0 -49 25 0 0 -48 24 0 0 -24 24 0 0 -25 24 0 0 -24 49 0 0 24 -24 0 0 73zm-267 -97l24 0 0 24 -24 0 0 -24zm679 194l0 -48 24 0 0 -25 -48 0 0 25 -25 0 0 24 -24 0 0 24 -24 0 0 24 -24 0 0 -72 24 0 0 -25 24 0 0 -48 24 0 0 -49 25 0 0 -73 -49 0 0 25 -24 0 0 48 -24 0 0 49 -25 0 0 24 -24 0 0 49 -24 0 0 24 -24 0 0 24 -25 0 0 24 -24 0 0 -48 24 0 0 -49 25 0 0 -48 24 0 0 -49 24 0 0 -73 -48 0 0 25 -25 0 0 48 -24 0 0 49 -24 0 0 48 -24 0 0 25 -25 0 0 24 -24 0 0 24 -24 0 0 -48 24 0 0 -49 24 0 0 -48 25 0 0 -98 -146 0 0 25 -48 0 0 24 -25 0 0 24 -24 0 0 25 -24 0 0 24 -24 0 0 -73 -25 0 0 -24 -24 0 0 -25 -97 0 0 25 -24 0 0 24 -24 0 0 24 -25 0 0 49 -24 0 0 97 -24 0 0 24 -24 0 0 24 -25 0 0 -48 25 0 0 -49 24 0 0 -145 -24 0 0 -25 -73 0 0 25 -24 0 0 -25 -49 0 0 49 -24 0 0 49 -24 0 0 24 -25 0 0 48 -24 0 0 49 -24 0 0 48 -24 0 0 49 -25 0 0 73 -24 0 0 48 24 0 0 24 25 0 0 -48 24 0 0 -49 24 0 0 -48 24 0 0 -49 25 0 0 25 48 0 0 24 146 0 0 -24 24 0 0 -25 24 0 0 -24 24 0 0 24 25 0 0 25 97 0 0 -25 24 0 0 -24 24 0 0 -24 24 0 0 -49 25 0 0 122 97 0 0 24 -49 0 0 24 -24 0 0 24 -49 0 0 49 -24 0 0 121 24 0 0 24 49 0 0 -24 48 0 0 -48 25 0 0 -25 24 0 0 -48 24 0 0 -73 24 0 0 -24 49 0 0 -24 24 0 0 -25 49 0 0 25 97 0 0 -25 24 0 0 -24 24 0 0 49 194 0 0 -25 49 0 0 -48 24 0 0 24 24 0 0 24 24 0 0 25 49 0 0 -25 48 0 0 -24 25 0 0 -24 24 0 0 73 121 0 0 -25 24 0 0 25 97 0 0 -25 49 0 0 25 97 0 0 -25 73 0 0 25 97 0 0 -25 48 0 0 25 97 0 0 -25 25 0 0 -24 24 0 0 -24 24 0 0 -24 -48 0 0 24 -25 0 0 24 -24 0 0 24 -48 0 0 -24 24 0 0 -48 24 0 0 -25 24 0 0 -48 25 0 0 -73 24 0 0 -24 -24 0 0 -25 -25 0 0 25 -24 0 0 -25 -121 0 0 25 -49 0 0 48 -24 0 0 97 24 0 0 25 73 0 0 24 -24 0 0 24 -49 0 0 -24 -24 0 0 -24 -24 0 0 -25 -49 0 0 49 -24 0 0 24 -24 0 0 24 -24 0 0 -72 24 0 0 -49 24 0 0 -48 24 0 0 -49 25 0 0 -24 -25 0 0 -25 -24 0 0 25 -24 0 0 -25 -97 0 0 25 -49 0 0 24 -24 0 0 24 -24 0 0 25 -25 0 0 48 -24 0 0 97 -24 0 0 24 -49 0 0 -48 25 0 0 -73 24 0 0 -73 24 0 0 -97 -48 0 0 49 -25 0 0 24 -24 0 0 49 -24 0 0 24 -24 0 0 48 -25 0 0 25 -24 0 0 24 -24 0 0 24 -24 0 0 -48 24 0 0 -73 24 0 0 -73 24 0 0 -49 -24 0 0 -24 -24 0 0 24 -24 0 0 25 -25 0 0 48 -24 0 0 25 -24 0 0 48 -24 0 0 24 -25 0 0 49 -24 0 0 24 -24 0z"/>
   <path class="fil0" d="M994 679l0 24 -24 0 0 -24 24 0zm0 0l0 -48 25 0 0 -25 24 0 0 49 -24 0 0 24 -25 0zm49 -73l0 -24 24 0 0 24 -24 0zm242 -145l0 24 -24 0 0 -24 24 0zm704 -97l0 97 -24 0 0 24 -49 0 0 -24 24 0 0 -73 25 0 0 -24 24 0zm-679 73l0 24 -25 0 0 -24 25 0zm-97 0l0 24 -25 0 0 -24 25 0zm824 -73l25 0 0 24 -25 0 0 -24zm413 -73l0 49 -25 0 0 24 -48 0 0 -24 24 0 0 -25 24 0 0 -24 25 0zm-1698 24l0 -24 24 0 0 24 -24 0zm1698 -24l0 -24 24 0 0 24 -24 0zm-534 73l-24 0 0 24 -24 0 0 49 -25 0 0 24 -24 0 0 24 -24 0 0 -97 24 0 0 -48 24 0 0 -25 25 0 0 -24 24 0 0 -24 48 0 0 24 -24 0 0 73zm-606 73l0 -49 -49 0 0 24 -24 0 0 25 -24 0 0 -49 24 0 0 -48 24 0 0 -49 24 0 0 -73 -48 0 0 25 -24 0 0 48 -25 0 0 49 -24 0 0 48 -24 0 0 24 -24 0 0 25 -25 0 0 24 -24 0 0 24 -24 0 0 -48 24 0 0 -49 24 0 0 -48 25 0 0 -49 24 0 0 -73 -49 0 0 25 -24 0 0 48 -24 0 0 49 -24 0 0 48 -25 0 0 49 -24 0 0 24 -24 0 0 24 -24 0 0 -24 -25 0 0 -24 25 0 0 -49 24 0 0 -48 24 0 0 -49 24 0 0 -73 -97 0 0 25 -24 0 0 24 -24 0 0 -49 -73 0 0 25 -48 0 0 -25 -49 0 0 25 -24 0 0 48 -24 0 0 24 -25 0 0 49 -24 0 0 73 -24 0 0 72 48 0 0 -48 25 0 0 -49 24 0 0 -24 24 0 0 -24 24 0 0 -49 49 0 0 25 -24 0 0 48 -25 0 0 49 -24 0 0 48 24 0 0 24 25 0 0 -24 24 0 0 -48 24 0 0 -25 24 0 0 -48 25 0 0 -24 24 0 0 -25 24 0 0 -24 24 0 0 49 -24 0 0 24 -24 0 0 73 -24 0 0 24 24 0 0 48 121 0 0 -24 24 0 0 24 97 0 0 25 -48 0 0 24 -49 0 0 24 -24 0 0 24 -24 0 0 73 -24 0 0 24 24 0 0 49 24 0 0 24 49 0 0 -24 24 0 0 -24 24 0 0 -25 24 0 0 -48 25 0 0 -49 24 0 0 -72 48 0 0 -25 122 0 0 -24 48 0 0 -48 24 0 0 24 25 0 0 24 24 0 0 24 48 0 0 -24 49 0 0 -24 24 0 0 -24 24 0 0 72 122 0 0 -24 48 0 0 24 97 0 0 -24 49 0 0 24 121 0 0 -24 24 0 0 -48 25 0 0 -25 24 0 0 -24 48 0 0 121 122 0 0 -24 24 0 0 -24 24 0 0 24 24 0 0 24 146 0 0 -24 24 0 0 -24 49 0 0 -73 -25 0 0 24 -24 0 0 25 -24 0 0 24 -49 0 0 24 -48 0 0 -24 -24 0 0 -49 121 0 0 -24 24 0 0 -48 24 0 0 -97 -24 0 0 -25 -97 0 0 25 -24 0 0 24 -24 0 0 24 -25 0 0 49 -24 0 0 48 -24 0 0 49 -24 0 0 24 -25 0 0 24 -48 0 0 -48 24 0 0 -49 24 0 0 -48 25 0 0 -49 24 0 0 -48 -24 0 0 -25 -25 0 0 25 -24 0 0 48 -24 0 0 24 -24 0 0 25 -49 0 0 -25 24 0 0 -97 -48 0 0 49 -24 0 0 48 -25 0 0 25 -24 0 0 24 -24 0 0 -49 24 0 0 -97 -145 0 0 25 -49 0 0 24 -24 0 0 24 -25 0 0 24 -24 0 0 49 -24 0 0 48 -24 0 0 49 -25 0 0 24 -48 0 0 -48 24 0 0 -73 24 0 0 -73 25 0 0 -97 -49 0 0 49 -24 0 0 24 -24 0 0 48 -25 0 0 25 -24 0 0 48 -24 0 0 24 -24 0 0 25 -25 0 0 24 -24 0 0 -49 24 0 0 -72 25 0 0 -73 24 0 0 -49 -24 0 0 -24 -25 0 0 24 -24 0 0 25 -24 0 0 48 -24 0 0 24 -25 0 0 49 -24 0 0 24 -24 0 0 49 -24 0z"/>
   <path class="fil0" d="M7688 1552l0 24 -24 0 0 -24 24 0zm25 -48l0 48 -25 0 0 -48 25 0zm-194 0l72 0 0 24 -24 0 0 24 -48 0 0 -48zm824 0l-24 0 0 48 -73 0 0 -48 24 0 0 -73 25 0 0 -24 24 0 0 -25 24 0 0 49 24 0 0 48 -24 0 0 25zm-703 -49l-24 0 0 24 -25 0 0 -24 -24 0 0 -24 24 0 0 -49 25 0 0 -24 24 0 0 -24 24 0 0 97 -24 0 0 24zm-267 24l-24 0 0 49 -24 0 0 24 -25 0 0 24 -24 0 0 -24 -24 0 0 -48 24 0 0 -49 24 0 0 -48 25 0 0 -25 24 0 0 -24 48 0 0 49 -24 0 0 72zm994 -121l25 0 0 24 -25 0 0 -24zm-1285 24l0 -24 24 0 0 24 -24 0zm631 122l0 -49 24 0 0 -48 24 0 0 -97 -48 0 0 24 -25 0 0 -24 -121 0 0 24 -24 0 0 24 -24 0 0 73 -25 0 0 24 25 0 0 49 -25 0 0 -25 -24 0 0 49 -24 0 0 24 -24 0 0 24 -25 0 0 -48 25 0 0 -49 24 0 0 -145 -24 0 0 -24 -73 0 0 24 -24 0 0 -24 -49 0 0 48 -24 0 0 49 -24 0 0 24 -25 0 0 48 -24 0 0 49 -24 0 0 24 -24 0 0 24 -49 0 0 -48 24 0 0 -49 25 0 0 -48 24 0 0 -49 24 0 0 -48 -24 0 0 -24 -97 0 0 24 -49 0 0 -24 -24 0 0 24 -24 0 0 24 -25 0 0 49 -24 0 0 48 -24 0 0 49 -24 0 0 97 48 0 0 -49 24 0 0 -48 25 0 0 -49 24 0 0 -24 24 0 0 -24 25 0 0 -25 48 0 0 49 -24 0 0 48 -24 0 0 122 97 0 0 24 -25 0 0 73 -24 0 0 48 24 0 0 24 25 0 0 -48 24 0 0 -49 24 0 0 -48 24 0 0 -49 25 0 0 25 48 0 0 24 146 0 0 -24 24 0 0 -25 48 0 0 25 97 0 0 -25 25 0 0 25 169 0 0 -25 49 0 0 -48 24 0 0 24 24 0 0 24 25 0 0 25 48 0 0 -25 49 0 0 -24 24 0 0 -24 24 0 0 73 121 0 0 -25 25 0 0 -24 24 0 0 24 24 0 0 25 97 0 0 -25 24 0 0 -24 25 0 0 -24 24 0 0 -49 24 0 0 -121 -24 0 0 -24 -24 0 0 -24 -97 0 0 24 -25 0 0 24 -24 0 0 24 -24 0 0 49 -24 0 0 73 -25 0 0 48 -24 0 0 24 -48 0 0 -48 24 0 0 -73 24 0 0 -73 24 0 0 -97 -48 0 0 49 -24 0 0 24 -25 0 0 49 -24 0 0 24 -24 0 0 48 -24 0 0 25 -25 0 0 24 -24 0 0 24 -24 0 0 -48 24 0 0 -73 24 0 0 -73 25 0 0 -48 -25 0 0 -25 -24 0 0 25 -24 0 0 24 -24 0 0 48 -25 0 0 25 -24 0 0 48 -24 0 0 24 -24 0 0 49 -25 0 0 -24 -24 0 0 -25 -24 0 0 25 -24 0z"/>
   <path class="fil0" d="M3978 3929l0 49 -25 0 0 -49 25 0zm0 0l0 -48 24 0 0 -25 24 0 0 49 -24 0 0 24 -24 0zm194 -194l0 24 -25 0 0 -24 25 0zm679 -170l0 73 24 0 0 24 24 0 0 -24 24 0 0 49 -24 0 0 24 -24 0 0 24 -49 0 0 24 -48 0 0 -145 24 0 0 -24 24 0 0 -25 25 0zm-219 0l0 73 25 0 0 24 24 0 0 -24 24 0 0 49 -24 0 0 24 -24 0 0 24 -49 0 0 24 -48 0 0 -145 24 0 0 -24 24 0 0 -25 24 0zm-145 49l0 73 -24 0 0 24 -25 0 0 24 -48 0 0 24 -73 0 0 -72 97 0 0 -25 49 0 0 -48 24 0zm630 24l-24 0 0 24 -24 0 0 49 -24 0 0 24 -25 0 0 24 -24 0 0 -97 24 0 0 -48 25 0 0 -24 24 0 0 -25 24 0 0 -24 49 0 0 49 -25 0 0 48zm-266 -73l0 -24 24 0 0 24 -24 0zm-219 0l0 -24 25 0 0 24 -25 0zm-218 25l-24 0 0 48 -49 0 0 -48 25 0 0 -25 24 0 0 -24 48 0 0 24 -24 0 0 25zm-267 48l-24 0 0 24 -24 0 0 49 -24 0 0 24 -25 0 0 24 -48 0 0 -48 24 0 0 -49 24 0 0 -48 25 0 0 -24 24 0 0 -25 24 0 0 -24 49 0 0 24 -25 0 0 73zm776 0l0 -121 -24 0 0 -25 -97 0 0 25 -24 0 0 24 -24 0 0 24 -25 0 0 49 -24 0 0 -97 -24 0 0 -25 -97 0 0 25 -24 0 0 24 -25 0 0 24 -24 0 0 49 -24 0 0 -97 -24 0 0 -25 -122 0 0 25 -24 0 0 24 -24 0 0 24 -24 0 0 49 -25 0 0 73 -24 0 0 24 -24 0 0 24 -24 0 0 -48 24 0 0 -49 24 0 0 -48 24 0 0 -98 -145 0 0 25 -49 0 0 24 -24 0 0 24 -24 0 0 25 -24 0 0 48 -25 0 0 146 97 0 0 24 -48 0 0 24 -24 0 0 24 -49 0 0 49 -24 0 0 121 24 0 0 24 49 0 0 -24 48 0 0 -48 24 0 0 -25 25 0 0 -48 24 0 0 -73 24 0 0 -24 49 0 0 -24 24 0 0 -25 73 0 0 25 145 0 0 -25 49 0 0 -24 24 0 0 24 24 0 0 25 146 0 0 -25 24 0 0 -24 24 0 0 24 24 0 0 25 146 0 0 -25 24 0 0 -24 24 0 0 24 25 0 0 25 97 0 0 -25 48 0 0 25 97 0 0 -25 49 0 0 -48 24 0 0 -49 -49 0 0 49 -24 0 0 24 -24 0 0 24 -24 0 0 -72 24 0 0 -49 24 0 0 -48 24 0 0 -49 25 0 0 -24 -25 0 0 -25 -24 0 0 25 -24 0 0 -25 -97 0 0 25 -49 0 0 24 -24 0 0 24 -24 0 0 25 -24 0 0 48 -25 0z"/>
   <path class="fil0" d="M3905 1746l0 49 -24 0 0 -49 24 0zm0 0l0 -48 24 0 0 -25 24 0 0 49 -24 0 0 24 -24 0zm582 -194l0 24 -24 0 0 -24 24 0zm-388 0l0 24 -24 0 0 -24 24 0zm-24 -97l-25 0 0 24 -24 0 0 49 -24 0 0 24 -24 0 0 24 -49 0 0 -48 24 0 0 -49 25 0 0 -48 24 0 0 -24 24 0 0 -25 24 0 0 -24 49 0 0 24 -24 0 0 73zm412 97l0 -48 24 0 0 -25 -48 0 0 25 -25 0 0 24 -24 0 0 24 -24 0 0 24 -24 0 0 -72 24 0 0 -25 24 0 0 -48 24 0 0 -49 25 0 0 -72 -49 0 0 24 -24 0 0 48 -24 0 0 49 -25 0 0 24 -24 0 0 49 -24 0 0 24 -24 0 0 24 -25 0 0 24 -24 0 0 -48 24 0 0 -49 25 0 0 -48 24 0 0 -49 24 0 0 -72 -48 0 0 24 -25 0 0 48 -24 0 0 49 -24 0 0 48 -24 0 0 25 -25 0 0 24 -24 0 0 24 -24 0 0 -48 24 0 0 -49 24 0 0 -48 25 0 0 -97 -146 0 0 24 -48 0 0 24 -25 0 0 24 -24 0 0 25 -24 0 0 48 -24 0 0 146 97 0 0 24 -49 0 0 24 -24 0 0 24 -49 0 0 49 -24 0 0 121 24 0 0 25 49 0 0 -25 48 0 0 -48 25 0 0 -25 24 0 0 -48 24 0 0 -73 24 0 0 -24 49 0 0 -24 24 0 0 -25 49 0 0 25 97 0 0 -25 24 0 0 -24 24 0 0 49 194 0 0 -25 49 0 0 -48 24 0 0 24 24 0 0 24 24 0 0 25 49 0 0 -25 48 0 0 -24 25 0 0 -24 24 0 0 73 121 0 0 -25 24 0 0 -24 25 0 0 -48 24 0 0 -25 -49 0 0 25 -24 0 0 48 -24 0 0 24 -49 0 0 -48 25 0 0 -73 24 0 0 -73 24 0 0 -97 -48 0 0 49 -25 0 0 24 -24 0 0 49 -24 0 0 24 -24 0 0 48 -25 0 0 25 -24 0 0 24 -24 0 0 24 -24 0 0 -48 24 0 0 -73 24 0 0 -73 24 0 0 -48 -24 0 0 -25 -24 0 0 25 -24 0 0 24 -25 0 0 48 -24 0 0 25 -24 0 0 48 -24 0 0 24 -25 0 0 49 -24 0 0 24 -24 0z"/>
   <path class="fil0" d="M2328 2644l0 24 -24 0 0 -24 24 0zm-412 -73l-24 0 0 48 -24 0 0 25 -25 0 0 24 -24 0 0 -24 -24 0 0 -49 24 0 0 -48 24 0 0 -49 25 0 0 -24 24 0 0 -24 48 0 0 48 -24 0 0 73zm412 73l0 -49 25 0 0 -24 -49 0 0 24 -24 0 0 24 -24 0 0 25 -25 0 0 24 -24 0 0 -73 24 0 0 -24 25 0 0 -49 24 0 0 -48 24 0 0 -73 -48 0 0 24 -25 0 0 49 -24 0 0 48 -24 0 0 25 -24 0 0 48 -25 0 0 24 -24 0 0 25 -24 0 0 24 -24 0 0 -49 24 0 0 -48 24 0 0 -49 24 0 0 -48 25 0 0 -73 -49 0 0 24 -24 0 0 49 -24 0 0 48 -25 0 0 49 -24 0 0 48 -24 0 0 25 -24 0 0 24 -25 0 0 -49 25 0 0 -48 24 0 0 -146 -24 0 0 -24 -73 0 0 24 -24 0 0 -24 -49 0 0 49 -24 0 0 48 -25 0 0 24 -24 0 0 49 -24 0 0 48 -24 0 0 49 -25 0 0 48 -24 0 0 73 -24 0 0 49 24 0 0 24 24 0 0 -49 25 0 0 -48 24 0 0 -49 24 0 0 -48 24 0 0 24 49 0 0 24 146 0 0 -24 24 0 0 -24 24 0 0 24 97 0 0 -24 24 0 0 -24 25 0 0 48 194 0 0 -24 48 0 0 -49 24 0 0 25 25 0 0 24 24 0 0 24 48 0 0 -24 49 0 0 -24 24 0 0 -25 24 0 0 73 122 0 0 -24 24 0 0 -24 24 0 0 -49 24 0 0 -24 -48 0 0 24 -24 0 0 49 -25 0 0 24 -48 0 0 -49 24 0 0 -72 24 0 0 -73 25 0 0 -97 -49 0 0 48 -24 0 0 25 -24 0 0 48 -25 0 0 24 -24 0 0 49 -24 0 0 24 -24 0 0 24 -25 0 0 25 -24 0 0 -49 24 0 0 -73 25 0 0 -72 24 0 0 -49 -24 0 0 -24 -25 0 0 24 -24 0 0 24 -24 0 0 49 -24 0 0 24 -25 0 0 49 -24 0 0 24 -24 0 0 48 -24 0 0 25 -25 0z"/>
   <path class="fil0" d="M1043 1770l0 25 -24 0 0 -25 24 0zm0 0l0 -48 24 0 0 -24 24 0 0 48 -24 0 0 24 -24 0zm48 -72l0 -25 25 0 0 25 -25 0zm558 -219l24 0 0 25 73 0 0 24 -24 0 0 24 -49 0 0 -24 -24 0 0 -49zm-291 -24l24 0 0 24 -24 0 0 -24zm-145 0l-25 0 0 49 -24 0 0 24 -24 0 0 24 -24 0 0 24 -49 0 0 -48 24 0 0 -49 25 0 0 -48 24 0 0 -24 24 0 0 -25 24 0 0 -24 49 0 0 49 -24 0 0 48zm582 -24l-25 0 0 24 -24 0 0 24 -24 0 0 -97 24 0 0 -24 24 0 0 -24 25 0 0 24 24 0 0 24 -24 0 0 49zm-776 48l0 97 24 0 0 25 73 0 0 24 -49 0 0 24 -24 0 0 24 -24 0 0 25 -25 0 0 72 -24 0 0 25 24 0 0 48 25 0 0 25 48 0 0 -25 24 0 0 -24 25 0 0 -49 24 0 0 -24 24 0 0 -73 24 0 0 -48 49 0 0 -24 48 0 0 -25 25 0 0 25 24 0 0 -25 24 0 0 -48 24 0 0 -24 25 0 0 -25 48 0 0 122 121 0 0 -25 49 0 0 25 97 0 0 -25 48 0 0 25 98 0 0 -25 24 0 0 -24 24 0 0 -24 24 0 0 -24 -48 0 0 24 -24 0 0 24 -25 0 0 24 -48 0 0 -24 24 0 0 -48 24 0 0 -25 25 0 0 -48 24 0 0 -73 24 0 0 -24 -24 0 0 -24 -24 0 0 24 -25 0 0 -24 -121 0 0 24 -49 0 0 48 -24 0 0 97 -48 0 0 49 -25 0 0 24 -24 0 0 24 -48 0 0 -48 24 0 0 -49 24 0 0 -48 24 0 0 -49 25 0 0 -48 -25 0 0 -24 -24 0 0 24 -24 0 0 48 -24 0 0 25 -25 0 0 24 -48 0 0 -24 24 0 0 -97 -48 0 0 48 -25 0 0 49 -24 0 0 24 -24 0 0 24 -24 0 0 49 -25 0 0 24 -24 0 0 24 -24 0 0 -48 24 0 0 -49 24 0 0 -48 25 0 0 -49 24 0 0 -24 -24 0 0 -24 -25 0 0 24 -24 0 0 -24 -97 0 0 24 -48 0 0 24 -25 0 0 24 -24 0 0 25 -24 0 0 72 -24 0z"/>
   <path class="fil0" d="M2983 1770l0 25 -24 0 0 -25 24 0zm0 0l0 -48 24 0 0 -24 25 0 0 48 -25 0 0 24 -24 0zm49 -72l0 -25 24 0 0 25 -24 0zm169 -170l0 24 -24 0 0 -24 24 0zm558 0l-24 0 0 24 -48 0 0 -73 24 0 0 -48 24 0 0 -49 24 0 0 25 25 0 0 97 -25 0 0 24zm122 -73l0 -24 -25 0 0 -73 -24 0 0 -48 -97 0 0 24 -48 0 0 48 -25 0 0 49 -24 0 0 73 -24 0 0 24 -24 0 0 24 -49 0 0 24 -73 0 0 -121 24 0 0 -48 25 0 0 -25 24 0 0 -24 24 0 0 49 -24 0 0 48 24 0 0 24 25 0 0 -24 24 0 0 -48 24 0 0 -73 -24 0 0 -24 -122 0 0 24 -24 0 0 24 -24 0 0 -48 -97 0 0 48 -24 0 0 49 48 0 0 -25 24 0 0 -24 25 0 0 49 24 0 0 -25 24 0 0 49 -24 0 0 73 -24 0 0 24 -25 0 0 -49 -24 0 0 49 -24 0 0 24 -49 0 0 -73 -48 0 0 49 -49 0 0 -49 25 0 0 -48 24 0 0 -49 24 0 0 -72 -48 0 0 24 -25 0 0 48 -24 0 0 49 -24 0 0 48 -24 0 0 25 -25 0 0 24 -24 0 0 24 -24 0 0 24 -24 0 0 -48 24 0 0 -49 24 0 0 -48 24 0 0 -49 25 0 0 -72 -49 0 0 24 -24 0 0 48 -24 0 0 49 -25 0 0 48 -24 0 0 122 97 0 0 24 -48 0 0 24 -49 0 0 24 -24 0 0 25 -24 0 0 72 -25 0 0 25 25 0 0 48 24 0 0 25 48 0 0 -25 25 0 0 -24 24 0 0 -24 24 0 0 -49 24 0 0 -48 25 0 0 -73 48 0 0 -24 49 0 0 -25 48 0 0 25 97 0 0 -25 49 0 0 25 170 0 0 -25 24 0 0 -24 24 0 0 24 24 0 0 25 122 0 0 -25 24 0 0 -48 24 0 0 -49 24 0 0 -24 25 0z"/>
   <path class="fil0" d="M6815 3638l-24 0 0 24 -24 0 0 49 -25 0 0 24 -24 0 0 24 -24 0 0 -97 24 0 0 -48 24 0 0 -24 25 0 0 -25 24 0 0 -24 48 0 0 49 -24 0 0 48zm-752 0l-24 0 0 24 -24 0 0 49 -24 0 0 24 -25 0 0 24 -24 0 0 -97 24 0 0 -48 25 0 0 -24 24 0 0 -25 24 0 0 -24 49 0 0 49 -25 0 0 48zm898 73l0 -49 -49 0 0 49 -24 0 0 24 -24 0 0 24 -25 0 0 -72 25 0 0 -49 24 0 0 -48 24 0 0 -49 24 0 0 -24 -24 0 0 -25 -24 0 0 25 -24 0 0 -25 -97 0 0 25 -49 0 0 24 -24 0 0 24 -24 0 0 25 -25 0 0 48 -24 0 0 97 -24 0 0 24 -49 0 0 -48 25 0 0 -73 24 0 0 -73 24 0 0 -97 -48 0 0 49 -25 0 0 24 -24 0 0 49 -24 0 0 24 -24 0 0 48 -25 0 0 25 -24 0 0 24 -24 0 0 24 -24 0 0 -48 24 0 0 -73 24 0 0 -73 24 0 0 -49 -24 0 0 -24 -24 0 0 24 -24 0 0 25 -25 0 0 48 -24 0 0 25 -24 0 0 48 -24 0 0 24 -25 0 0 49 -24 0 0 24 -24 0 0 24 -24 0 0 -48 24 0 0 -49 -49 0 0 49 -24 0 0 24 -24 0 0 24 -24 0 0 -72 24 0 0 -49 24 0 0 -48 24 0 0 -49 25 0 0 -24 -25 0 0 -25 -24 0 0 25 -24 0 0 -25 -97 0 0 25 -49 0 0 24 -24 0 0 24 -24 0 0 25 -24 0 0 48 -25 0 0 121 25 0 0 25 97 0 0 -25 48 0 0 25 97 0 0 -25 24 0 0 25 73 0 0 -25 49 0 0 -48 24 0 0 24 24 0 0 24 24 0 0 25 49 0 0 -25 48 0 0 -24 25 0 0 -24 24 0 0 73 121 0 0 -25 24 0 0 25 97 0 0 -25 49 0 0 25 97 0 0 -25 48 0 0 -48 25 0z"/>
   <path class="fil0" d="M4560 2474l0 48 -25 0 0 25 -48 0 0 -25 24 0 0 -24 24 0 0 -24 25 0zm-243 97l-24 0 0 48 -24 0 0 25 -25 0 0 24 -24 0 0 -24 -24 0 0 -49 24 0 0 -48 24 0 0 -49 25 0 0 -24 24 0 0 -24 48 0 0 48 -24 0 0 73zm243 -97l0 -24 24 0 0 24 -24 0zm-510 24l-24 0 0 49 -48 0 0 -49 24 0 0 -24 24 0 0 -24 49 0 0 24 -25 0 0 24zm-72 -73l-25 0 0 25 -24 0 0 24 -24 0 0 48 -24 0 0 146 24 0 0 24 145 0 0 -24 25 0 0 48 -25 0 0 73 -24 0 0 49 24 0 0 24 25 0 0 -49 24 0 0 -48 24 0 0 -49 24 0 0 -48 25 0 0 24 48 0 0 24 146 0 0 -24 24 0 0 -24 48 0 0 24 146 0 0 -24 24 0 0 -24 49 0 0 -73 -25 0 0 24 -24 0 0 24 -24 0 0 25 -49 0 0 24 -48 0 0 -24 -24 0 0 -49 121 0 0 -24 24 0 0 -49 24 0 0 -97 -24 0 0 -24 -97 0 0 24 -24 0 0 25 -24 0 0 24 -25 0 0 48 -24 0 0 73 -24 0 0 49 -24 0 0 24 -25 0 0 -49 25 0 0 -48 24 0 0 -146 -24 0 0 -24 -73 0 0 24 -24 0 0 -24 -49 0 0 49 -24 0 0 48 -24 0 0 24 -25 0 0 49 -24 0 0 24 -24 0 0 24 -24 0 0 25 -49 0 0 24 -73 0 0 -73 97 0 0 -24 49 0 0 -49 24 0 0 -97 -24 0 0 -24 -121 0 0 24z"/>
   <path class="fil0" d="M2983 315l0 -24 24 0 0 24 -24 0zm315 49l-24 0 0 24 -24 0 0 49 -24 0 0 24 -25 0 0 24 -24 0 0 -97 24 0 0 -48 25 0 0 -25 24 0 0 -24 24 0 0 -24 49 0 0 24 -25 0 0 73zm-436 -73l0 -24 24 0 0 24 -24 0zm0 0l0 49 -24 0 0 24 -25 0 0 48 -24 0 0 97 49 0 0 -48 24 0 0 -49 24 0 0 -24 24 0 0 -24 25 0 0 -49 48 0 0 25 -24 0 0 48 -24 0 0 97 24 0 0 24 97 0 0 -24 73 0 0 24 97 0 0 -24 48 0 0 24 97 0 0 -24 24 0 0 24 25 0 0 -24 24 0 0 -48 24 0 0 -49 -73 0 0 49 -24 0 0 24 -24 0 0 24 -49 0 0 -24 25 0 0 -73 24 0 0 -24 24 0 0 -49 24 0 0 -97 -145 0 0 25 -49 0 0 24 -24 0 0 24 -24 0 0 24 -24 0 0 49 -25 0 0 24 -24 0 0 49 -24 0 0 24 -24 0 0 24 -25 0 0 -97 25 0 0 -24 24 0 0 -49 24 0 0 -97 -73 0 0 25 -72 0 0 -25 -73 0 0 25 -24 0 0 24 -25 0 0 -49 -48 0 0 49 -24 0 0 48 -25 0 0 25 -24 0 0 48 -24 0 0 121 48 0 0 -72 25 0 0 -25 24 0 0 -48 24 0 0 -24 24 0 0 -25 25 0 0 -24 24 0z"/>
   <path class="fil0" d="M3687 412l-25 0 0 49 -72 0 0 -49 24 0 0 -72 24 0 0 -25 24 0 0 -24 25 0 0 49 24 0 0 48 -24 0 0 24zm388 -97l0 -24 24 0 0 24 -24 0zm-122 -24l0 -24 25 0 0 24 -25 0zm-242 -24l24 0 0 24 -24 0 0 -24zm-243 121l73 0 0 73 24 0 0 24 25 0 0 24 97 0 0 -24 24 0 0 -24 24 0 0 -24 24 0 0 72 49 0 0 -72 24 0 0 -25 24 0 0 -48 25 0 0 -24 24 0 0 -25 24 0 0 -24 24 0 0 49 -24 0 0 24 -24 0 0 48 -24 0 0 97 48 0 0 -48 24 0 0 -49 25 0 0 -24 24 0 0 -24 24 0 0 -49 49 0 0 25 -25 0 0 48 -24 0 0 97 24 0 0 24 97 0 0 -24 49 0 0 -48 24 0 0 -49 -48 0 0 49 -25 0 0 24 -24 0 0 24 -24 0 0 -97 24 0 0 -24 24 0 0 -49 25 0 0 -97 -73 0 0 25 -73 0 0 -25 -73 0 0 25 -24 0 0 24 -24 0 0 -49 -49 0 0 49 -24 0 0 48 -24 0 0 25 -24 0 0 -73 -25 0 0 -24 -24 0 0 -25 -97 0 0 25 -24 0 0 24 -24 0 0 24 -25 0 0 24 -24 0 0 25 -24 0 0 -49 24 0 0 -73 -49 0 0 25 -24 0 0 48 -24 0 0 49 -24 0 0 24 48 0 0 24z"/>
   <path class="fil0" d="M6354 364l25 0 0 24 -25 0 0 -24zm-145 -73l0 -24 24 0 0 24 -24 0zm0 0l0 49 -24 0 0 48 -25 0 0 121 122 0 0 -24 24 0 0 24 24 0 0 -24 24 0 0 -48 25 0 0 -25 24 0 0 -24 48 0 0 121 122 0 0 -24 24 0 0 24 97 0 0 -24 24 0 0 -24 24 0 0 48 122 0 0 -24 24 0 0 -24 24 0 0 -49 24 0 0 -24 -48 0 0 24 -24 0 0 25 -25 0 0 24 -24 0 0 24 -24 0 0 -73 24 0 0 -24 24 0 0 -48 25 0 0 -49 24 0 0 -73 -49 0 0 25 -24 0 0 48 -24 0 0 49 -24 0 0 24 -25 0 0 48 -24 0 0 25 -24 0 0 24 -24 0 0 24 -25 0 0 -48 25 0 0 -49 24 0 0 -48 24 0 0 -49 24 0 0 -73 -48 0 0 25 -24 0 0 48 -25 0 0 49 -24 0 0 48 -24 0 0 49 -24 0 0 24 -25 0 0 24 -48 0 0 -48 24 0 0 -49 24 0 0 -48 25 0 0 -49 24 0 0 -48 -24 0 0 -25 -25 0 0 25 -24 0 0 48 -24 0 0 24 -24 0 0 25 -49 0 0 -25 24 0 0 -97 -48 0 0 49 -24 0 0 48 -25 0 0 25 -24 0 0 24 -24 0 0 73 -24 0 0 24 -25 0 0 24 -48 0 0 -48 24 0 0 -49 24 0 0 -48 25 0 0 -49 24 0 0 -48 -24 0 0 -25 -73 0 0 25 -49 0 0 24 -24 0 0 24 -24 0 0 49 24 0 0 -25 24 0 0 -24 49 0z"/>
   <path class="fil0" d="M2959 2838l0 24 -24 0 0 -24 24 0zm24 -49l0 49 -24 0 0 -49 24 0zm24 -24l0 24 -24 0 0 -24 24 0zm0 0l0 -24 25 0 0 24 -25 0zm340 -218l-24 0 0 24 -25 0 0 48 -24 0 0 25 -24 0 0 24 -24 0 0 -97 24 0 0 -49 24 0 0 -24 24 0 0 -24 25 0 0 -24 48 0 0 48 -24 0 0 49zm-340 -122l-48 0 0 25 -24 0 0 97 24 0 0 -25 24 0 0 -24 24 0 0 -24 25 0 0 -24 72 0 0 48 -24 0 0 24 -24 0 0 25 -24 0 0 24 -49 0 0 24 -24 0 0 24 -24 0 0 49 72 0 0 -24 49 0 0 48 -49 0 0 24 -48 0 0 25 -24 0 0 24 -25 0 0 48 -24 0 0 49 24 0 0 48 97 0 0 -48 25 0 0 -24 24 0 0 -49 24 0 0 -48 24 0 0 -49 25 0 0 -24 48 0 0 24 97 0 0 -24 49 0 0 24 97 0 0 -24 48 0 0 -49 24 0 0 -48 -48 0 0 48 -24 0 0 25 -25 0 0 24 -24 0 0 -73 24 0 0 -48 25 0 0 -49 24 0 0 -48 24 0 0 -25 -24 0 0 -24 -24 0 0 24 -25 0 0 -24 -97 0 0 24 -48 0 0 25 -24 0 0 24 -25 0 0 24 -24 0 0 49 -24 0 0 72 -24 0 0 25 -49 0 0 -25 -24 0 0 -24 24 0 0 -24 49 0 0 -49 24 0 0 -97 -24 0 0 -24 -122 0 0 24z"/>
   <path class="fil0" d="M6160 2595l-24 0 0 49 -73 0 0 -49 25 0 0 -73 24 0 0 -24 24 0 0 -24 24 0 0 48 25 0 0 49 -25 0 0 24zm-218 -24l-24 0 0 24 -24 0 0 24 -25 0 0 25 -24 0 0 24 -24 0 0 -97 24 0 0 -49 24 0 0 -48 25 0 0 -24 24 0 0 -25 24 0 0 25 24 0 0 48 -24 0 0 73zm243 -121l24 0 0 24 -24 0 0 -24zm-316 -49l0 24 -24 0 0 -24 24 0zm0 0l0 -24 25 0 0 24 -25 0zm97 -121l0 48 -24 0 0 -48 24 0zm25 -24l0 24 -25 0 0 -24 25 0zm0 0l0 -49 24 0 0 49 -24 0zm-146 145l-24 0 0 24 -49 0 0 25 -24 0 0 24 49 0 0 48 -25 0 0 146 25 0 0 24 121 0 0 -24 24 0 0 -24 24 0 0 -49 25 0 0 -48 24 0 0 97 24 0 0 24 24 0 0 24 97 0 0 -24 25 0 0 -24 24 0 0 -25 24 0 0 -48 24 0 0 -121 -24 0 0 -25 -24 0 0 -24 -97 0 0 24 -24 0 0 25 -25 0 0 24 -24 0 0 48 -24 0 0 -97 -24 0 0 -24 -73 0 0 -24 48 0 0 -24 49 0 0 -25 24 0 0 -48 24 0 0 -121 -24 0 0 -25 -48 0 0 25 -25 0 0 24 -24 0 0 24 -24 0 0 49 -24 0 0 48 -25 0 0 49 -24 0 0 48z"/>
   <path class="fil0" d="M3007 3687l-24 0 0 48 -73 0 0 -48 25 0 0 -73 24 0 0 -24 24 0 0 -25 24 0 0 49 25 0 0 48 -25 0 0 25zm25 -146l24 0 0 24 -24 0 0 -24zm-413 -49l-24 0 0 25 -24 0 0 48 -24 0 0 25 -25 0 0 48 -24 0 0 24 -24 0 0 49 -24 0 0 24 -25 0 0 24 -24 0 0 -48 24 0 0 -49 -24 0 0 25 -24 0 0 48 -24 0 0 24 24 0 0 25 73 0 0 -25 48 0 0 -48 24 0 0 24 25 0 0 24 24 0 0 25 48 0 0 -25 49 0 0 -24 24 0 0 -24 24 0 0 73 122 0 0 -25 24 0 0 -24 24 0 0 24 24 0 0 25 97 0 0 -25 25 0 0 -24 24 0 0 -24 24 0 0 -49 24 0 0 -121 -24 0 0 -24 -24 0 0 -25 -97 0 0 25 -24 0 0 24 -25 0 0 24 -24 0 0 49 -24 0 0 73 -24 0 0 48 -25 0 0 24 -48 0 0 -48 24 0 0 -73 24 0 0 -73 25 0 0 -97 -49 0 0 49 -24 0 0 24 -24 0 0 49 -25 0 0 24 -24 0 0 48 -24 0 0 25 -24 0 0 24 -25 0 0 24 -24 0 0 -48 24 0 0 -73 25 0 0 -73 24 0 0 -49 -24 0 0 -24 -25 0 0 24z"/>
   <path class="fil0" d="M6112 1504l-24 0 0 48 -73 0 0 -24 24 0 0 -97 24 0 0 -24 25 0 0 -25 24 0 0 49 24 0 0 48 -24 0 0 25zm24 -146l24 0 0 24 -24 0 0 -24zm49 170l0 -49 24 0 0 -121 -24 0 0 -24 -25 0 0 -24 -97 0 0 24 -24 0 0 24 -24 0 0 24 -24 0 0 49 -25 0 0 121 -24 0 0 24 -48 0 0 -48 24 0 0 -73 24 0 0 -73 24 0 0 -97 -48 0 0 49 -24 0 0 24 -25 0 0 49 -24 0 0 24 -24 0 0 48 -24 0 0 25 -25 0 0 24 -24 0 0 24 -24 0 0 -48 24 0 0 -73 24 0 0 -73 25 0 0 -48 -25 0 0 -25 -24 0 0 25 -24 0 0 24 -24 0 0 48 -25 0 0 25 -24 0 0 48 -24 0 0 24 -24 0 0 49 -25 0 0 24 -24 0 0 24 -24 0 0 -48 24 0 0 -49 -24 0 0 25 -24 0 0 48 -25 0 0 24 25 0 0 25 72 0 0 -25 49 0 0 -48 24 0 0 24 24 0 0 24 25 0 0 25 48 0 0 -25 49 0 0 -24 24 0 0 -24 24 0 0 73 121 0 0 -25 49 0 0 25 97 0 0 -25 24 0 0 -24 24 0 0 -24 25 0z"/>
   <path class="fil0" d="M6403 1479l-24 0 0 49 -25 0 0 24 -24 0 0 24 -24 0 0 -24 -24 0 0 -48 24 0 0 -49 24 0 0 -48 24 0 0 -25 25 0 0 -24 48 0 0 49 -24 0 0 72zm267 -72l-25 0 0 48 -48 0 0 -48 24 0 0 -25 24 0 0 -24 49 0 0 24 -24 0 0 25zm-461 72l0 49 -24 0 0 48 -25 0 0 49 -24 0 0 73 -24 0 0 48 24 0 0 24 24 0 0 -48 25 0 0 -49 24 0 0 -48 24 0 0 -49 24 0 0 25 49 0 0 24 145 0 0 -24 25 0 0 -25 48 0 0 25 146 0 0 -25 48 0 0 -24 24 0 0 -24 25 0 0 -49 -25 0 0 25 -24 0 0 24 -24 0 0 24 -49 0 0 24 -72 0 0 -72 97 0 0 -25 48 0 0 -48 24 0 0 -97 -24 0 0 -24 -121 0 0 24 -24 0 0 24 -25 0 0 24 -24 0 0 49 -24 0 0 97 -24 0 0 24 -25 0 0 24 -24 0 0 -48 24 0 0 -49 25 0 0 -145 -25 0 0 -24 -72 0 0 24 -25 0 0 -24 -48 0 0 48 -24 0 0 49 -25 0 0 24 -24 0 0 48 -24 0z"/>
   <path class="fil0" d="M5772 3614l0 -24 25 0 0 24 -25 0zm-72 -24l0 24 -25 0 0 -24 25 0zm72 24l0 73 -24 0 0 97 49 0 0 -49 24 0 0 -73 24 0 0 -48 24 0 0 -49 25 0 0 -48 24 0 0 -49 24 0 0 -48 24 0 0 -97 -48 0 0 24 -24 0 0 24 -25 0 0 24 -24 0 0 49 -24 0 0 24 -24 0 0 24 -25 0 0 49 -24 0 0 24 -24 0 0 25 -24 0 0 -73 24 0 0 -73 24 0 0 -97 -24 0 0 -24 -49 0 0 24 -24 0 0 48 -24 0 0 25 -24 0 0 48 -25 0 0 49 -24 0 0 24 -24 0 0 49 -24 0 0 48 -25 0 0 49 -24 0 0 97 24 0 0 -25 25 0 0 -48 24 0 0 -24 24 0 0 -49 24 0 0 -48 25 0 0 -25 24 0 0 49 -24 0 0 170 48 0 0 -25 24 0 0 -24 25 0 0 -48 24 0 0 -25 24 0 0 -48 24 0z"/>
   <path class="fil0" d="M4875 461l0 24 -24 0 0 -24 24 0zm315 24l-48 0 0 -24 24 0 0 -73 24 0 0 24 24 0 0 49 -24 0 0 24zm24 -121l25 0 0 24 -25 0 0 -24zm-436 -73l0 49 -24 0 0 24 -49 0 0 -24 24 0 0 -25 25 0 0 -24 24 0zm0 0l0 -24 24 0 0 24 -24 0zm97 170l0 -73 -24 0 0 24 -25 0 0 25 -24 0 0 24 -48 0 0 24 -49 0 0 -24 -24 0 0 -49 121 0 0 -24 24 0 0 -48 25 0 0 -97 -25 0 0 -25 -97 0 0 25 -24 0 0 24 -24 0 0 24 -24 0 0 49 -25 0 0 72 -24 0 0 25 24 0 0 48 25 0 0 24 145 0 0 -24 24 0 0 24 73 0 0 -24 49 0 0 -48 24 0 0 48 24 0 0 24 218 0 0 -24 49 0 0 -48 24 0 0 -73 -24 0 0 -24 -49 0 0 -97 -48 0 0 48 -24 0 0 49 -25 0 0 48 -24 0 0 73 -24 0 0 24 -24 0 0 -97 24 0 0 -48 24 0 0 -73 24 0 0 -49 -24 0 0 -24 -24 0 0 24 -24 0 0 25 -25 0 0 48 -24 0 0 24 -24 0 0 49 -24 0 0 24 -25 0 0 49 -24 0 0 24 -24 0z"/>
   <path class="fil0" d="M2571 1576l-49 0 0 -48 25 0 0 -49 24 0 0 25 24 0 0 48 -24 0 0 24zm24 -121l24 0 0 24 -24 0 0 -24zm-339 -145l-25 0 0 24 -24 0 0 48 -24 0 0 25 -24 0 0 48 -25 0 0 24 -24 0 0 49 -24 0 0 24 -24 0 0 24 -25 0 0 -48 25 0 0 -49 -25 0 0 25 -24 0 0 48 -24 0 0 24 24 0 0 25 73 0 0 -25 48 0 0 -48 25 0 0 24 24 0 0 24 24 0 0 25 49 0 0 -25 48 0 0 -24 24 0 0 -24 25 0 0 73 242 0 0 -25 49 0 0 -48 24 0 0 -73 -24 0 0 -24 -49 0 0 -97 -48 0 0 48 -25 0 0 49 -24 0 0 48 -24 0 0 73 -24 0 0 24 -49 0 0 -48 24 0 0 -73 25 0 0 -73 24 0 0 -97 -49 0 0 49 -24 0 0 24 -24 0 0 49 -24 0 0 24 -25 0 0 48 -24 0 0 25 -24 0 0 24 -24 0 0 24 -25 0 0 -48 25 0 0 -73 24 0 0 -73 24 0 0 -48 -24 0 0 -25 -24 0 0 25z"/>
   <path class="fil0" d="M5045 2547l-25 0 0 24 -24 0 0 48 -24 0 0 25 -24 0 0 24 -25 0 0 -97 25 0 0 -49 24 0 0 -24 24 0 0 -24 24 0 0 -24 49 0 0 24 -24 0 0 73zm-291 -73l0 -24 24 0 0 24 -24 0zm0 0l0 48 -25 0 0 49 -24 0 0 121 121 0 0 -24 49 0 0 24 97 0 0 -24 48 0 0 24 97 0 0 -24 25 0 0 -24 24 0 0 -49 24 0 0 -24 -48 0 0 48 -25 0 0 25 -24 0 0 24 -48 0 0 -24 24 0 0 -73 24 0 0 -24 24 0 0 -49 25 0 0 -97 -146 0 0 24 -48 0 0 25 -25 0 0 24 -24 0 0 24 -24 0 0 49 -24 0 0 72 -25 0 0 25 -24 0 0 24 -48 0 0 -49 24 0 0 -48 24 0 0 -49 24 0 0 -48 25 0 0 -49 -25 0 0 -24 -72 0 0 24 -49 0 0 25 -24 0 0 24 -24 0 0 48 24 0 0 -24 24 0 0 -24 49 0z"/>
   <path class="fil0" d="M291 412l-24 0 0 25 -49 0 0 24 -72 0 0 -24 24 0 0 -73 24 0 0 -24 121 0 0 48 -24 0 0 24zm121 -218l-24 0 0 24 -48 0 0 25 -49 0 0 24 -48 0 0 -24 24 0 0 -49 24 0 0 -48 24 0 0 -25 49 0 0 -24 48 0 0 24 25 0 0 25 -25 0 0 48zm-121 -121l-97 0 0 48 24 0 0 73 -24 0 0 24 -24 0 0 49 -24 0 0 48 -25 0 0 73 -24 0 0 97 24 0 0 24 146 0 0 -24 48 0 0 -24 25 0 0 -24 24 0 0 -122 -24 0 0 -24 48 0 0 -24 24 0 0 -24 25 0 0 -25 24 0 0 -48 24 0 0 -49 -24 0 0 -48 -24 0 0 -25 -146 0 0 25z"/>
   <path class="fil0" d="M485 1382l0 49 -24 0 0 24 -49 0 0 -24 25 0 0 -24 24 0 0 -25 24 0zm0 0l0 -24 24 0 0 24 -24 0zm-242 0l0 -24 24 0 0 24 -24 0zm0 0l0 73 24 0 0 24 24 0 0 -24 24 0 0 -121 -24 0 0 -24 -97 0 0 24 -24 0 0 24 -24 0 0 24 -25 0 0 49 -24 0 0 145 24 0 0 25 146 0 0 -25 24 0 0 -24 24 0 0 -24 25 0 0 48 24 0 0 25 145 0 0 -25 25 0 0 -24 48 0 0 -73 -24 0 0 25 -24 0 0 24 -25 0 0 24 -48 0 0 24 -49 0 0 -24 -24 0 0 -48 121 0 0 -25 25 0 0 -48 24 0 0 -97 -24 0 0 -24 -97 0 0 24 -25 0 0 24 -24 0 0 24 -24 0 0 49 -24 0 0 48 -25 0 0 25 -24 0 0 24 -24 0 0 24 -49 0 0 24 -48 0 0 -145 24 0 0 -24 24 0 0 -25 25 0z"/>
   <path class="fil0" d="M1382 2571l-24 0 0 48 -24 0 0 25 -73 0 0 -49 24 0 0 -73 25 0 0 -24 24 0 0 -24 24 0 0 -24 24 0 0 -25 25 0 0 97 -25 0 0 49zm-97 -170l25 0 0 24 -25 0 0 -24zm122 -97l0 24 -25 0 0 -24 25 0zm0 0l0 -48 24 0 0 -25 24 0 0 49 -24 0 0 24 -24 0zm-122 97l-24 0 0 24 -48 0 0 25 -25 0 0 24 49 0 0 48 -24 0 0 122 24 0 0 48 121 0 0 -24 24 0 0 -24 25 0 0 -25 24 0 0 -48 24 0 0 -170 -97 0 0 -24 49 0 0 -24 48 0 0 -25 24 0 0 -24 25 0 0 -73 24 0 0 -24 -24 0 0 -48 -25 0 0 -25 -48 0 0 25 -24 0 0 24 -25 0 0 24 -24 0 0 49 -24 0 0 48 -24 0 0 49 -25 0 0 48z"/>
   <path class="fil0" d="M5603 2498l0 -24 24 0 0 24 -24 0zm-122 -24l0 -24 25 0 0 24 -25 0zm0 0l0 48 -24 0 0 25 -24 0 0 48 -24 0 0 97 48 0 0 -48 24 0 0 -49 25 0 0 -24 24 0 0 -24 24 0 0 -49 49 0 0 24 -25 0 0 49 -24 0 0 97 24 0 0 24 97 0 0 -24 49 0 0 -49 24 0 0 -48 -48 0 0 48 -25 0 0 25 -24 0 0 24 -24 0 0 -97 24 0 0 -24 24 0 0 -49 25 0 0 -97 -73 0 0 24 -73 0 0 -24 -73 0 0 24 -24 0 0 25 -24 0 0 -49 -49 0 0 49 -24 0 0 48 -24 0 0 24 -24 0 0 49 -25 0 0 121 49 0 0 -73 24 0 0 -24 24 0 0 -48 25 0 0 -25 24 0 0 -24 24 0 0 -24 24 0z"/>
   <path class="fil0" d="M3905 3541l-24 0 0 49 -25 0 0 48 -24 0 0 24 -24 0 0 25 -24 0 0 24 -25 0 0 24 -97 0 0 -24 -24 0 0 -73 24 0 0 -73 25 0 0 -48 24 0 0 -49 24 0 0 -24 24 0 0 -24 25 0 0 -25 48 0 0 -24 73 0 0 24 24 0 0 73 -24 0 0 73zm-121 -194l-49 0 0 24 -24 0 0 24 -24 0 0 25 -25 0 0 24 -24 0 0 48 -24 0 0 49 -24 0 0 194 24 0 0 24 24 0 0 25 170 0 0 -25 24 0 0 -24 24 0 0 -24 25 0 0 -24 24 0 0 -25 24 0 0 -48 24 0 0 -49 25 0 0 -194 -25 0 0 -24 -48 0 0 -24 -121 0 0 24z"/>
   <path class="fil0" d="M5287 1479l-24 0 0 25 -24 0 0 24 -25 0 0 24 -24 0 0 24 -24 0 0 -97 24 0 0 -48 24 0 0 -49 25 0 0 -24 24 0 0 -24 24 0 0 24 25 0 0 49 -25 0 0 72zm-73 -169l0 24 -24 0 0 -24 24 0zm0 0l0 -25 25 0 0 25 -25 0zm98 -122l0 49 -25 0 0 -49 25 0zm24 -24l0 24 -24 0 0 -24 24 0zm0 0l0 -48 24 0 0 48 -24 0zm-146 146l-24 0 0 24 -49 0 0 24 -24 0 0 24 49 0 0 49 -25 0 0 145 25 0 0 25 121 0 0 -25 24 0 0 -24 25 0 0 -48 24 0 0 -49 24 0 0 -121 -24 0 0 -24 -73 0 0 -25 49 0 0 -24 48 0 0 -24 24 0 0 -49 25 0 0 -121 -25 0 0 -24 -48 0 0 24 -24 0 0 24 -25 0 0 25 -24 0 0 48 -24 0 0 49 -25 0 0 48 -24 0 0 49z"/>
   <path class="fil0" d="M1067 2595l-24 0 0 49 -73 0 0 -49 24 0 0 -73 25 0 0 -24 24 0 0 -24 24 0 0 48 24 0 0 49 -24 0 0 24zm24 -145l25 0 0 24 -25 0 0 -24zm-266 24l0 -24 24 0 0 24 -24 0zm0 0l0 48 -25 0 0 49 -24 0 0 121 121 0 0 -24 25 0 0 -24 24 0 0 24 24 0 0 24 97 0 0 -24 24 0 0 -24 25 0 0 -25 24 0 0 -48 24 0 0 -121 -24 0 0 -25 -24 0 0 -24 -97 0 0 24 -25 0 0 25 -24 0 0 24 -24 0 0 48 -24 0 0 97 -25 0 0 25 -24 0 0 24 -48 0 0 -49 24 0 0 -48 24 0 0 -49 24 0 0 -48 25 0 0 -49 -25 0 0 -24 -72 0 0 24 -49 0 0 25 -24 0 0 24 -24 0 0 48 24 0 0 -24 24 0 0 -24 49 0z"/>
   <path class="fil0" d="M922 1504l-25 0 0 48 -72 0 0 -48 24 0 0 -73 24 0 0 -24 24 0 0 -25 25 0 0 49 24 0 0 48 -24 0 0 25zm24 -146l24 0 0 24 -24 0 0 -24zm-267 24l0 -24 24 0 0 24 -24 0zm0 0l0 49 -24 0 0 48 -24 0 0 122 121 0 0 -25 24 0 0 -24 24 0 0 24 25 0 0 25 97 0 0 -25 24 0 0 -24 24 0 0 -24 24 0 0 -49 25 0 0 -121 -25 0 0 -24 -24 0 0 -24 -97 0 0 24 -24 0 0 24 -24 0 0 24 -25 0 0 49 -24 0 0 97 -24 0 0 24 -24 0 0 24 -49 0 0 -48 24 0 0 -49 25 0 0 -48 24 0 0 -49 24 0 0 -48 -24 0 0 -24 -73 0 0 24 -48 0 0 24 -25 0 0 24 -24 0 0 49 24 0 0 -24 25 0 0 -25 48 0z"/>
   <path class="fil0" d="M5627 315l-24 0 0 49 -49 0 0 -49 24 0 0 -24 25 0 0 -24 48 0 0 24 -24 0 0 24zm-73 -72l-24 0 0 24 -24 0 0 24 -25 0 0 49 -24 0 0 97 -24 0 0 24 -24 0 0 24 -49 0 0 -48 24 0 0 -49 25 0 0 -24 24 0 0 -49 24 0 0 -72 -48 0 0 24 -25 0 0 24 -24 0 0 49 -24 0 0 48 -24 0 0 121 121 0 0 -24 48 0 0 24 146 0 0 -24 48 0 0 -24 25 0 0 -24 24 0 0 -49 -24 0 0 24 -25 0 0 25 -24 0 0 24 -48 0 0 24 -73 0 0 -73 97 0 0 -24 48 0 0 -48 25 0 0 -97 -25 0 0 -25 -121 0 0 25z"/>
   <path class="fil0" d="M291 2280l24 0 0 24 -24 0 0 -24zm-48 24l24 0 0 24 -24 0 0 25 -25 0 0 48 -24 0 0 49 -24 0 0 48 -24 0 0 49 -25 0 0 72 -24 0 0 73 49 0 0 -48 24 0 0 -49 24 0 0 -48 24 0 0 -49 25 0 0 -24 24 0 0 -49 24 0 0 -48 24 0 0 -49 25 0 0 -24 121 0 0 24 -24 0 0 49 -25 0 0 48 -24 0 0 49 -24 0 0 48 -24 0 0 49 -25 0 0 48 -24 0 0 49 24 0 0 24 25 0 0 -48 24 0 0 -49 24 0 0 -48 24 0 0 -25 25 0 0 -48 24 0 0 -49 24 0 0 -48 24 0 0 -24 25 0 0 -97 -291 0 0 48z"/>
   <path class="fil0" d="M3347 3735l0 24 -24 0 0 -24 24 0zm-170 -48l73 0 0 24 -24 0 0 24 -49 0 0 -48zm121 -49l-24 0 0 24 -24 0 0 -24 -24 0 0 -24 24 0 0 -49 24 0 0 -24 24 0 0 -24 25 0 0 97 -25 0 0 24zm-121 49l-24 0 0 -25 -24 0 0 97 24 0 0 25 97 0 0 -25 24 0 0 25 121 0 0 -25 25 0 0 -24 24 0 0 -48 -24 0 0 24 -25 0 0 24 -48 0 0 -48 24 0 0 -49 24 0 0 -48 25 0 0 -98 -49 0 0 25 -24 0 0 -25 -121 0 0 25 -25 0 0 24 -24 0 0 73 -24 0 0 24 24 0 0 49z"/>
   <path class="fil0" d="M3784 2595l-25 0 0 24 -24 0 0 25 -48 0 0 -73 24 0 0 -49 24 0 0 -48 24 0 0 -24 49 0 0 72 -24 0 0 73zm145 -388l-24 0 0 24 -49 0 0 25 -24 0 0 24 -48 0 0 24 -25 0 0 24 -24 0 0 49 -24 0 0 24 -24 0 0 49 -25 0 0 72 -24 0 0 146 24 0 0 24 122 0 0 -24 24 0 0 -49 24 0 0 -48 24 0 0 -121 -24 0 0 -49 -73 0 0 -24 25 0 0 -24 24 0 0 -25 48 0 0 -24 49 0 0 -24 24 0 0 -24 24 0 0 -49 25 0 0 -24 -49 0 0 24z"/>
   <path class="fil0" d="M4511 412l-24 0 0 25 -24 0 0 24 -49 0 0 -73 24 0 0 -48 25 0 0 -49 24 0 0 -24 48 0 0 73 -24 0 0 72zm146 -388l-25 0 0 24 -48 0 0 25 -24 0 0 24 -49 0 0 24 -24 0 0 25 -24 0 0 48 -25 0 0 24 -24 0 0 49 -24 0 0 73 -24 0 0 145 24 0 0 24 121 0 0 -24 24 0 0 -48 25 0 0 -49 24 0 0 -121 -24 0 0 -49 -73 0 0 -24 24 0 0 -24 24 0 0 -24 49 0 0 -25 48 0 0 -24 25 0 0 -24 24 0 0 -49 24 0 0 -24 -48 0 0 24z"/>
   <polygon class="fil0" points="6257,2571 6257,2692 6354,2692 6354,2668 6379,2668 6379,2644 6403,2644 6403,2692 6524,2692 6524,2668 6548,2668 6548,2644 6573,2644 6573,2619 6597,2619 6597,2571 6548,2571 6548,2619 6524,2619 6524,2644 6500,2644 6500,2668 6451,2668 6451,2619 6476,2619 6476,2571 6500,2571 6500,2522 6524,2522 6524,2498 6548,2498 6548,2401 6500,2401 6500,2425 6476,2425 6476,2474 6451,2474 6451,2522 6427,2522 6427,2571 6403,2571 6403,2595 6379,2595 6379,2619 6354,2619 6354,2644 6330,2644 6330,2668 6306,2668 6306,2619 6330,2619 6330,2571 6354,2571 6354,2522 6379,2522 6379,2474 6403,2474 6403,2401 6354,2401 6354,2425 6330,2425 6330,2474 6306,2474 6306,2522 6282,2522 6282,2571 "/>
   <path class="fil0" d="M606 2595l-24 0 0 49 -73 0 0 -49 25 0 0 -73 24 0 0 -24 24 0 0 -24 24 0 0 48 25 0 0 49 -25 0 0 24zm25 -145l24 0 0 24 -24 0 0 -24zm-73 -25l-24 0 0 25 -25 0 0 24 -24 0 0 48 -24 0 0 122 24 0 0 24 24 0 0 24 97 0 0 -24 25 0 0 -24 24 0 0 -25 24 0 0 -48 24 0 0 -121 -24 0 0 -25 -24 0 0 -24 -97 0 0 24z"/>
   <path class="fil0" d="M5991 412l-25 0 0 49 -72 0 0 -49 24 0 0 -72 24 0 0 -25 24 0 0 -24 25 0 0 49 24 0 0 48 -24 0 0 24zm24 -145l24 0 0 24 -24 0 0 -24zm-73 -24l-24 0 0 24 -24 0 0 24 -25 0 0 49 -24 0 0 121 24 0 0 24 25 0 0 24 97 0 0 -24 24 0 0 -24 24 0 0 -24 24 0 0 -49 25 0 0 -121 -25 0 0 -24 -24 0 0 -25 -97 0 0 25z"/>
   <path class="fil0" d="M1601 2619l-25 0 0 25 -48 0 0 -73 24 0 0 -49 24 0 0 -48 25 0 0 24 24 0 0 97 -24 0 0 24zm-25 -194l-48 0 0 49 -24 0 0 48 -25 0 0 146 25 0 0 24 121 0 0 -24 24 0 0 -49 24 0 0 -48 25 0 0 -24 24 0 0 -25 -24 0 0 -72 -25 0 0 -49 -97 0 0 24z"/>
   <polygon class="fil0" points="7009,3711 7034,3711 7034,3687 7058,3687 7058,3638 7082,3638 7082,3590 7106,3590 7106,3541 7131,3541 7131,3492 7155,3492 7155,3468 7179,3468 7179,3420 7203,3420 7203,3323 7155,3323 7155,3371 7131,3371 7131,3395 7106,3395 7106,3444 7082,3444 7082,3492 7058,3492 7058,3541 7034,3541 7034,3590 7009,3590 "/>
   <polygon class="fil0" points="2789,1358 2765,1358 2765,1382 2741,1382 2741,1431 2716,1431 2716,1479 2692,1479 2692,1601 2813,1601 2813,1576 2838,1576 2838,1552 2862,1552 2862,1528 2886,1528 2886,1504 2862,1504 2862,1479 2838,1479 2838,1528 2813,1528 2813,1552 2789,1552 2789,1576 2741,1576 2741,1528 2765,1528 2765,1479 2789,1479 2789,1455 2813,1455 2813,1407 2838,1407 2838,1334 2789,1334 "/>
   <polygon class="fil0" points="5263,3638 5312,3638 5312,3662 5360,3662 5360,3638 5457,3638 5457,3590 5263,3590 "/>
   <polygon class="fil0" points="6621,2644 6597,2644 6597,2741 6645,2741 6645,2716 6670,2716 6670,2619 6621,2619 "/>
   <polygon class="fil0" points="6936,534 6912,534 6912,558 6961,558 6961,534 6985,534 6985,509 7009,509 7009,437 6936,437 "/>
   <polygon class="fil0" points="8489,1601 8537,1601 8537,1576 8561,1576 8561,1528 8489,1528 "/>
   <polygon class="fil0" points="7009,3711 6961,3711 6961,3784 7009,3784 7009,3759 7034,3759 7034,3735 7009,3735 "/>
   <polygon class="fil0" points="3420,1407 3395,1407 3395,1479 3420,1479 "/>
  </g>
 </g>
</svg>
